<svg width="790" height="840" viewBox="0 0 790 840" fill="none" xmlns="http://www.w3.org/2000/svg">
<path d="M605.74 559.001C568.444 565.519 531.597 570.208 494.445 572.88C457.735 575.52 420.992 577.301 384.229 576.629C341.996 575.857 299.821 573.45 257.83 568.253C207.471 562.022 157.44 554.368 109.165 538.027C93.9535 532.877 79.229 526.66 66.0393 517.231C43.7682 501.311 43.6983 482.783 66.4579 467.572C86.3332 454.288 109.231 448.335 132.02 442.519C147.251 438.632 162.642 435.284 178.091 432.383C184.125 431.25 186.985 428.405 189.079 422.886C214.214 356.642 241.104 291.134 273.219 227.912C301.942 171.367 333.321 116.398 371.773 65.7493C383.901 49.7742 397.026 34.6535 411.252 20.5179C435.233 -3.30946 461.214 -6.67691 489.223 11.9517C523.428 34.7007 555.092 60.9427 587.569 86.05C591.235 88.8842 594.245 92.5539 591.376 97.6721C588.203 103.331 582.887 104.579 577.112 103.324C565.889 100.887 554.686 98.2945 543.606 95.2831C526.235 90.562 509.061 85.173 492.221 78.7629C490.186 77.988 488.214 76.6023 485.466 77.3267C483.434 81.0525 485.837 84.4764 486.803 87.8493C500.921 137.15 518.611 185.247 535.674 233.57C556.564 292.73 576.717 352.151 597.114 411.486C603.791 430.909 603.734 430.705 623.8 434.856C651.218 440.528 678.422 447.077 704.469 457.641C713.774 461.416 722.818 465.725 730.746 472.003C746.958 484.84 747.332 500.844 731.781 514.439C722.03 522.965 710.588 528.608 698.723 533.433C670.816 544.782 641.685 551.803 612.223 557.617C610.265 558.004 608.329 558.493 605.74 559.001Z" fill="black"/>
<path d="M106.154 587.827C108.855 583.705 112.124 581.961 116.584 582.144C193.927 585.319 267.93 600.378 333.861 643.683C355.327 657.782 374.559 674.511 390.484 694.828C391.839 696.556 393.403 698.119 395.272 700.209C405.732 688.203 416.04 676.686 427.703 666.486C467.842 631.388 515.227 610.753 566.169 597.428C601.831 588.1 638.323 584.344 675.043 582.331C679.794 582.07 681.698 584.842 683.816 588.001C703.335 617.11 722.877 646.202 742.393 675.312C750.339 687.165 758.226 699.056 766.167 710.912C767.707 713.212 769.717 715.49 768.358 718.429C766.802 721.794 763.488 721.499 760.487 721.382C738.245 720.515 716.047 717.887 693.775 718.586C636.09 720.397 579.149 727.058 524.507 747.024C500.387 755.838 477.62 767.236 457.756 783.826C456.223 785.105 454.75 786.47 453.374 787.914C452.92 788.39 452.86 789.242 452.6 789.979C455.069 791.883 456.983 789.99 458.806 789.14C508.901 765.798 561.958 752.822 616.315 744.847C651.481 739.688 686.921 737.15 722.51 738.622C735.982 739.179 749.422 740.539 762.873 741.581C767.522 741.942 770.798 744.471 772.886 748.528C777.927 758.319 783.097 768.05 787.857 777.977C792.978 788.655 788.77 795.142 776.853 794.84C736.044 793.804 695.231 793.467 654.41 793.573C614.854 793.676 575.323 794.731 535.934 798.313C511.821 800.505 487.856 804.21 464.291 810.098C460.152 811.132 457.253 813.77 454.261 816.406C426.409 840.939 395.161 845.992 360.706 832.776C355.032 830.6 349.296 827.918 345.366 823.529C332.357 809.002 314.561 807.132 297.142 804.143C222.968 791.417 148.079 793.55 73.3017 793.65C53.5302 793.677 33.7609 794.493 13.9881 794.771C0.670819 794.959 -3.22898 788.667 2.68161 776.696C7.33642 767.268 12.2258 757.956 16.9579 748.566C19.1572 744.202 22.3788 741.923 27.469 741.368C54.6421 738.401 81.9127 737.475 109.169 738.563C185.592 741.614 259.251 757.297 329.422 788.263C332.043 789.42 334.51 791.479 338.337 790.378C334.641 783.445 328.369 779.647 322.613 775.543C290.643 752.747 254.326 740.428 216.437 731.986C166.611 720.885 116.12 717.153 65.1965 718.565C55.2147 718.842 45.2592 720.06 35.2907 720.831C33.2961 720.985 31.2891 721.264 29.3018 721.175C21.3173 720.818 19.6073 717.462 24.1041 710.714C48.3977 674.259 72.7462 637.841 97.077 601.41C99.9958 597.04 102.923 592.675 106.154 587.827ZM258.413 633.343C255.11 632.175 251.814 630.99 248.505 629.843C215.263 618.328 180.861 612.514 146.003 608.87C141.142 608.362 137.922 610.271 135.244 614.1C127.494 625.177 119.502 636.086 111.812 647.205C104.179 658.241 96.7976 669.45 89.3404 680.533C91.9038 682.624 93.9734 681.922 95.8816 681.967C128.626 682.743 161.271 684.337 193.609 690.239C266.601 703.56 332.304 731.83 386.946 783.252C395.828 791.61 396.067 791.498 405.018 783.012C437.607 752.121 474.94 728.814 516.859 712.792C572.182 691.645 629.704 683.155 688.661 682.775C692.747 682.748 697.066 683.83 701.291 681.548C700.853 680.304 700.711 679.283 700.192 678.518C685.714 657.18 671.19 635.873 656.694 614.548C654.158 610.818 650.629 609.749 646.281 610.01C627.546 611.134 609.051 613.921 590.691 617.718C539.559 628.291 491.664 646.385 450.849 679.898C426.111 700.209 405.557 723.861 397.499 756.055C397.105 757.628 397.658 759.744 395.226 760.158C392.829 759.567 393.262 757.416 392.924 755.878C388.623 736.291 378.662 719.705 365.84 704.645C337.131 670.924 300.21 649.507 258.413 633.343Z" fill="black"/>
</svg>
