<svg width="800" height="800" viewBox="0 0 800 800" fill="none" xmlns="http://www.w3.org/2000/svg">
<rect width="800" height="800" rx="220" fill="url(#paint0_radial_42_11)"/>
<path d="M525.328 483.448C503.081 487.336 481.102 490.133 458.941 491.727C437.042 493.301 415.125 494.364 393.195 493.963C368.003 493.502 342.846 492.066 317.798 488.967C287.758 485.25 257.915 480.684 229.119 470.936C220.045 467.865 211.261 464.156 203.394 458.532C190.109 449.035 190.067 437.983 203.643 428.909C215.499 420.986 229.158 417.434 242.752 413.965C251.837 411.647 261.018 409.65 270.233 407.919C273.832 407.243 275.538 405.546 276.787 402.254C291.781 362.739 307.821 323.663 326.977 285.951C344.111 252.221 362.829 219.432 385.765 189.22C393 179.691 400.829 170.671 409.315 162.239C423.62 148.026 439.118 146.017 455.825 157.129C476.229 170.699 495.117 186.353 514.49 201.329C516.676 203.02 518.472 205.209 516.76 208.262C514.867 211.638 511.697 212.382 508.251 211.634C501.557 210.18 494.874 208.633 488.265 206.837C477.903 204.021 467.659 200.806 457.614 196.983C456.399 196.52 455.223 195.694 453.584 196.126C452.372 198.348 453.806 200.391 454.382 202.403C462.803 231.811 473.356 260.501 483.534 289.326C495.994 324.616 508.016 360.061 520.183 395.454C524.166 407.04 524.132 406.919 536.101 409.395C552.457 412.778 568.684 416.684 584.221 422.986C589.772 425.237 595.166 427.808 599.895 431.553C609.566 439.21 609.789 448.757 600.513 456.866C594.696 461.952 587.871 465.318 580.794 468.196C564.146 474.966 546.77 479.154 529.195 482.622C528.028 482.853 526.873 483.145 525.328 483.448Z" fill="black"/>
<path d="M227.321 500.643C228.933 498.184 230.882 497.143 233.543 497.253C279.678 499.146 323.822 508.129 363.15 533.961C375.955 542.371 387.427 552.35 396.926 564.469C397.734 565.5 398.668 566.433 399.782 567.679C406.021 560.518 412.17 553.647 419.128 547.563C443.07 526.627 471.336 514.318 501.723 506.37C522.996 500.805 544.764 498.565 566.667 497.364C569.502 497.208 570.637 498.862 571.901 500.747C583.544 518.11 595.201 535.464 606.842 552.828C611.582 559.898 616.287 566.991 621.023 574.064C621.942 575.436 623.141 576.794 622.33 578.547C621.402 580.554 619.426 580.379 617.636 580.309C604.368 579.792 591.126 578.224 577.841 578.641C543.432 579.721 509.466 583.695 476.872 595.605C462.484 600.862 448.904 607.661 437.054 617.557C436.14 618.32 435.261 619.134 434.44 619.996C434.17 620.28 434.134 620.788 433.979 621.228C435.451 622.363 436.593 621.234 437.681 620.727C467.562 606.804 499.211 599.063 531.636 594.306C552.612 591.229 573.753 589.715 594.982 590.593C603.018 590.925 611.035 591.736 619.059 592.358C621.832 592.573 623.786 594.082 625.032 596.502C628.038 602.342 631.122 608.147 633.962 614.068C637.016 620.437 634.506 624.307 627.398 624.127C603.055 623.509 578.71 623.308 554.36 623.371C530.765 623.433 507.184 624.062 483.688 626.198C469.305 627.507 455.009 629.716 440.953 633.228C438.484 633.845 436.754 635.419 434.969 636.991C418.355 651.625 399.716 654.64 379.163 646.756C375.779 645.458 372.358 643.858 370.013 641.24C362.253 632.575 351.637 631.459 341.247 629.677C297.002 622.085 252.33 623.358 207.725 623.417C195.931 623.433 184.139 623.92 172.344 624.086C164.4 624.198 162.074 620.445 165.6 613.304C168.376 607.68 171.293 602.126 174.115 596.524C175.427 593.921 177.349 592.562 180.385 592.231C196.594 590.461 212.861 589.909 229.12 590.558C274.707 592.377 318.645 601.733 360.502 620.204C362.066 620.894 363.537 622.122 365.82 621.466C363.616 617.33 359.874 615.064 356.441 612.616C337.37 599.018 315.707 591.67 293.106 586.635C263.385 580.013 233.266 577.786 202.89 578.629C196.936 578.794 190.997 579.52 185.051 579.98C183.861 580.072 182.664 580.239 181.479 580.186C176.716 579.972 175.696 577.971 178.378 573.946C192.87 552.2 207.394 530.476 221.907 508.745C223.648 506.138 225.394 503.535 227.321 500.643ZM318.145 527.793C316.175 527.097 314.209 526.39 312.235 525.706C292.406 518.837 271.885 515.368 251.092 513.195C248.192 512.892 246.271 514.031 244.674 516.314C240.051 522.922 235.284 529.43 230.697 536.062C226.144 542.645 221.74 549.331 217.292 555.942C218.821 557.189 220.056 556.771 221.194 556.798C240.726 557.261 260.199 558.211 279.489 561.732C323.029 569.678 362.221 586.541 394.816 617.214C400.114 622.2 400.256 622.133 405.596 617.072C425.035 598.645 447.305 584.742 472.31 575.185C505.31 562.571 539.623 557.506 574.791 557.279C577.228 557.264 579.805 557.909 582.325 556.548C582.063 555.806 581.978 555.197 581.669 554.74C573.032 542.012 564.369 529.302 555.722 516.582C554.209 514.357 552.104 513.719 549.511 513.875C538.335 514.545 527.303 516.208 516.351 518.473C485.85 524.78 457.281 535.573 432.934 555.563C418.178 567.679 405.918 581.788 401.111 600.991C400.876 601.93 401.206 603.192 399.755 603.439C398.325 603.086 398.583 601.804 398.382 600.886C395.816 589.202 389.874 579.308 382.226 570.325C365.101 550.211 343.077 537.435 318.145 527.793Z" fill="black"/>
<defs>
<radialGradient id="paint0_radial_42_11" cx="0" cy="0" r="1" gradientUnits="userSpaceOnUse" gradientTransform="translate(400 370.5) rotate(90) scale(635.5)">
<stop offset="1" stop-color="#C9D0E7"/>
</radialGradient>
</defs>
</svg>
